<?xml version="1.0" standalone="no"?>
<!DOCTYPE svg PUBLIC "-//W3C//DTD SVG 20010904//EN"
 "http://www.w3.org/TR/2001/REC-SVG-20010904/DTD/svg10.dtd">
<svg version="1.0" xmlns="http://www.w3.org/2000/svg"
 width="1024.000000pt" height="1024.000000pt" viewBox="0 0 1024.000000 1024.000000"
 preserveAspectRatio="xMidYMid meet">
<metadata>
Created by potrace 1.14, written by Peter Selinger 2001-2017
</metadata>
<g transform="translate(0.000000,1024.000000) scale(0.100000,-0.100000)"
fill="#000000" stroke="none">
<path d="M5685 8693 c-264 -32 -504 -102 -715 -208 -93 -47 -1813 -1136 -1961
-1241 -225 -162 -441 -420 -575 -687 -132 -262 -188 -490 -201 -809 -12 -324
49 -622 195 -937 l29 -65 -47 -80 c-301 -512 -350 -1160 -129 -1727 76 -195
157 -338 295 -521 331 -436 818 -733 1379 -839 159 -31 509 -38 672 -14 141
20 311 62 430 106 208 76 284 122 2018 1229 168 107 227 153 352 273 281 271
486 652 548 1017 74 435 29 814 -144 1200 l-49 110 41 67 c122 207 210 452
253 708 23 136 23 450 0 595 -72 458 -268 840 -606 1180 -343 346 -821 579
-1299 635 -112 13 -405 18 -486 8z m410 -814 c403 -48 735 -254 962 -598 147
-222 212 -460 199 -726 -3 -71 -12 -157 -19 -190 -23 -97 -59 -215 -67 -215
-4 0 -71 43 -149 95 -166 112 -337 198 -516 260 l-130 45 3 59 c7 115 -47 244
-133 320 -22 19 -69 48 -105 65 -58 27 -75 31 -155 31 -80 0 -97 -4 -155 -31
-93 -44 -1727 -1088 -1773 -1132 -136 -132 -141 -339 -12 -497 77 -94 193
-140 329 -133 103 6 106 7 503 262 370 236 436 273 558 314 159 54 243 67 425
67 133 -1 185 -5 270 -24 285 -62 528 -204 716 -419 219 -250 326 -522 325
-827 -1 -136 -12 -223 -45 -336 -73 -252 -237 -482 -446 -625 -169 -116 -1761
-1124 -1827 -1158 -153 -76 -307 -115 -494 -123 -223 -10 -429 30 -625 122
-139 65 -254 146 -369 260 -211 209 -340 464 -376 740 -13 103 -6 308 15 400
13 60 56 207 62 214 2 2 70 -41 151 -95 178 -120 332 -197 514 -259 l137 -47
-5 -56 c-17 -184 113 -361 300 -412 64 -17 180 -9 240 18 82 36 1749 1104
1791 1147 21 22 51 65 65 95 22 47 26 68 25 145 0 79 -4 98 -31 155 -33 71
-112 154 -179 188 -95 47 -236 54 -324 15 -25 -11 -191 -114 -370 -228 -438
-281 -500 -313 -713 -366 -119 -30 -349 -37 -487 -15 -196 31 -428 127 -577
238 -102 77 -250 231 -321 336 -104 153 -167 309 -198 491 -24 138 -15 371 20
496 77 282 240 514 467 666 151 101 1692 1082 1770 1126 212 121 490 174 754
142z"/>
</g>
</svg>
